<?xml version="1.0" standalone="no"?>
<!DOCTYPE svg PUBLIC "-//W3C//DTD SVG 20010904//EN"
 "http://www.w3.org/TR/2001/REC-SVG-20010904/DTD/svg10.dtd">
<svg version="1.0" xmlns="http://www.w3.org/2000/svg"
 width="960.000000pt" height="960.000000pt" viewBox="0 0 960.000000 960.000000"
 preserveAspectRatio="xMidYMid meet">
<metadata>
Created by potrace 1.11, written by Peter Selinger 2001-2013
</metadata>
<g transform="translate(0.000000,960.000000) scale(0.100000,-0.100000)"
fill="#000000" stroke="none">
<path d="M5871 7953 c-5 -10 -30 -69 -55 -131 -26 -62 -58 -138 -71 -167 -14
-30 -29 -65 -34 -79 l-10 -24 -78 25 c-180 59 -433 113 -598 128 -38 4 -90 8
-115 11 -64 6 -353 6 -425 0 -144 -13 -216 -22 -290 -36 -27 -5 -61 -12 -75
-14 -295 -51 -682 -200 -968 -373 -68 -41 -211 -137 -252 -170 -8 -6 -51 -40
-95 -74 -113 -89 -335 -314 -438 -444 -220 -276 -372 -551 -489 -885 -17 -47
-31 -92 -33 -100 -2 -8 -13 -47 -24 -86 -24 -84 -67 -298 -75 -369 -3 -27 -9
-81 -13 -120 -10 -86 -9 -489 0 -565 17 -139 19 -147 38 -250 6 -30 12 -64 14
-75 12 -75 76 -290 127 -425 44 -117 142 -324 195 -415 36 -61 158 -247 179
-275 304 -385 556 -610 918 -819 96 -56 330 -171 357 -176 10 -2 26 -8 36 -13
20 -11 219 -82 243 -87 8 -2 58 -15 110 -29 88 -24 281 -61 368 -72 217 -25
616 -26 762 0 14 3 43 7 65 10 22 3 49 7 60 10 11 2 40 7 65 11 65 11 273 63
344 86 727 240 1297 699 1681 1352 55 95 148 284 174 357 7 19 17 44 22 55 20
46 71 201 84 255 1 3 7 25 14 50 7 25 15 56 18 70 2 14 8 41 13 60 9 34 35
187 45 264 27 217 23 538 -10 761 -14 98 -30 178 -57 285 -16 63 -30 120 -32
125 -9 40 -65 198 -101 287 -74 180 -172 364 -270 508 -281 409 -602 708
-1021 948 -83 48 -299 152 -315 152 -6 0 -9 6 -6 13 16 39 100 235 107 252 5
11 23 51 39 90 l29 69 -46 19 c-26 10 -55 23 -64 28 -26 13 -36 11 -47 -8z"/>
<path d="M6635 7915 c-52 -12 -117 -48 -147 -82 -35 -39 -59 -112 -57 -171 5
-131 102 -228 239 -239 118 -10 221 43 273 141 27 52 29 155 4 206 -37 75
-110 132 -187 145 -25 4 -52 8 -60 10 -8 1 -37 -3 -65 -10z"/>
</g>
</svg>
