<?xml version="1.0" standalone="no"?>
<!DOCTYPE svg PUBLIC "-//W3C//DTD SVG 20010904//EN"
 "http://www.w3.org/TR/2001/REC-SVG-20010904/DTD/svg10.dtd">
<svg version="1.0" xmlns="http://www.w3.org/2000/svg"
 width="960.000000pt" height="960.000000pt" viewBox="0 0 960.000000 960.000000"
 preserveAspectRatio="xMidYMid meet">
<metadata>
Created by potrace 1.11, written by Peter Selinger 2001-2013
</metadata>
<g transform="translate(0.000000,960.000000) scale(0.100000,-0.100000)"
fill="#000000" stroke="none">
<path d="M6504 7848 c-16 -29 -42 -80 -58 -113 -16 -33 -32 -62 -35 -65 -3 -3
-32 -57 -65 -120 -32 -63 -60 -116 -61 -118 -1 -2 -52 22 -113 52 -169 85
-445 192 -542 211 -11 2 -35 9 -53 14 -49 16 -189 46 -257 57 -19 2 -57 9 -85
14 -27 5 -70 10 -95 11 -25 2 -49 6 -55 9 -12 9 -551 5 -615 -4 -25 -3 -65 -9
-90 -12 -25 -4 -54 -8 -65 -10 -57 -7 -209 -38 -275 -56 -151 -40 -406 -127
-435 -148 -5 -4 -23 -10 -40 -14 -16 -4 -32 -11 -35 -14 -3 -4 -30 -18 -60
-32 -74 -33 -254 -132 -258 -142 -2 -4 -8 -8 -13 -8 -11 0 -186 -116 -207
-137 -7 -7 -17 -13 -20 -13 -4 0 -18 -10 -32 -22 -14 -13 -59 -50 -100 -83
-86 -68 -290 -269 -370 -365 -30 -36 -57 -67 -61 -70 -12 -11 -158 -218 -197
-281 -124 -196 -236 -437 -311 -669 -36 -113 -86 -313 -96 -390 -3 -19 -10
-60 -15 -90 -39 -226 -42 -588 -6 -827 3 -24 9 -62 12 -85 8 -61 41 -210 64
-298 12 -41 22 -82 25 -90 19 -77 125 -353 138 -358 4 -2 7 -9 7 -16 0 -14
101 -213 143 -281 56 -90 140 -219 164 -250 13 -16 27 -34 31 -40 105 -141
207 -252 407 -441 30 -28 239 -191 295 -230 259 -180 670 -368 950 -434 134
-32 207 -48 260 -56 19 -3 42 -7 50 -9 8 -2 42 -7 75 -10 33 -3 78 -9 100 -12
94 -16 653 -6 715 12 8 3 44 9 80 14 102 16 132 22 175 33 40 10 54 14 98 23
111 24 355 111 491 174 49 23 90 41 92 41 2 0 25 13 51 28 26 16 51 29 56 30
36 7 322 195 442 291 108 87 132 108 255 231 259 259 433 502 589 825 68 141
152 360 167 433 3 13 11 42 18 65 18 52 63 256 71 317 3 25 8 61 11 80 10 71
17 157 18 222 1 38 3 68 6 68 7 0 3 216 -4 235 -3 8 -1 17 5 20 5 4 6 11 2 18
-3 6 -8 31 -9 56 -4 64 -13 141 -19 171 -3 14 -7 43 -10 65 -25 198 -107 488
-200 705 -48 112 -145 303 -191 377 -59 94 -127 196 -151 228 -13 17 -27 35
-31 40 -31 42 -81 105 -104 130 -14 17 -36 41 -48 55 -89 103 -253 257 -390
366 -41 32 -76 62 -78 67 -2 4 -8 7 -14 7 -6 0 -27 14 -48 30 -21 17 -43 30
-49 30 -6 0 -11 4 -11 9 0 5 -16 16 -35 25 l-35 17 47 92 c26 51 51 95 57 99
6 4 8 8 4 8 -4 0 8 26 25 58 18 31 46 84 62 117 17 33 33 62 37 65 4 3 9 16
10 29 3 19 -8 29 -60 57 -34 19 -64 34 -66 34 -1 0 -16 -24 -32 -52z m-1399
-172 c107 -13 304 -48 380 -68 44 -11 88 -21 97 -23 9 -2 26 -9 37 -15 12 -6
21 -9 21 -6 0 12 359 -123 386 -145 6 -5 13 -7 16 -4 3 3 11 -1 18 -10 7 -8
18 -15 24 -15 17 1 136 -64 136 -74 0 -8 -27 -61 -227 -441 -40 -77 -79 -151
-86 -165 -6 -14 -14 -27 -17 -30 -3 -3 -20 -34 -38 -70 -87 -172 -236 -456
-241 -460 -3 -3 -32 -57 -64 -120 -54 -108 -84 -165 -227 -435 -145 -274 -146
-276 -107 -319 24 -27 52 -33 177 -42 41 -3 91 -6 110 -8 19 -2 80 -7 135 -11
55 -4 118 -9 140 -11 110 -11 306 -26 343 -27 17 0 32 -4 32 -9 0 -9 -122
-250 -131 -258 -5 -5 -53 -97 -128 -245 -19 -38 -38 -72 -41 -75 -17 -16 -100
-200 -97 -216 11 -53 16 -57 245 -159 66 -29 69 -33 31 -41 -13 -2 -53 -12
-89 -22 -70 -19 -73 -24 -56 -91 17 -70 33 -94 122 -182 231 -226 295 -304
309 -378 11 -60 -77 -167 -285 -346 -58 -49 -118 -102 -134 -118 l-29 -28 44
-47 c46 -49 61 -62 69 -62 3 0 26 19 52 43 25 23 65 58 88 77 159 133 284 269
329 359 22 41 32 140 19 181 -18 58 -79 155 -139 221 -13 14 -36 39 -50 55
-14 16 -63 64 -108 108 -45 43 -81 79 -79 81 2 2 50 15 108 30 150 39 180 58
180 114 0 23 -47 81 -70 85 -19 4 -44 14 -165 71 -146 68 -168 78 -187 84 -19
7 -28 -14 102 236 46 88 87 162 92 163 4 2 8 11 8 21 0 9 4 21 9 27 4 5 39 68
76 139 37 72 79 150 92 175 40 71 32 122 -22 145 -22 9 -26 9 -155 19 -47 3
-103 9 -125 11 -40 5 -124 11 -265 20 -41 3 -93 7 -115 9 -22 3 -85 8 -140 11
-55 4 -103 9 -108 12 -6 4 87 197 103 213 3 3 21 37 41 75 36 71 137 264 214
410 23 44 69 132 102 195 33 63 83 158 110 210 85 160 248 471 332 632 l55
106 52 -34 c72 -45 195 -137 274 -203 131 -109 358 -347 435 -455 11 -16 29
-40 41 -55 88 -111 212 -325 313 -543 25 -53 108 -276 116 -311 3 -12 19 -71
35 -132 29 -106 33 -121 44 -194 3 -18 7 -40 10 -50 3 -9 8 -43 11 -76 3 -33
8 -75 11 -93 13 -83 18 -337 9 -487 -7 -105 -33 -305 -50 -375 -7 -30 -16 -80
-17 -97 -1 -7 -5 -13 -10 -13 -5 0 -7 -4 -4 -8 3 -5 -2 -31 -10 -58 -9 -27
-17 -58 -19 -68 -18 -84 -117 -332 -190 -478 -181 -360 -455 -699 -765 -947
-23 -19 -49 -41 -56 -49 -8 -7 -14 -10 -14 -5 0 4 -5 0 -11 -10 -5 -9 -17 -17
-24 -17 -8 0 -15 -4 -15 -8 0 -10 -210 -146 -315 -203 -158 -87 -376 -179
-550 -232 -72 -22 -243 -65 -289 -71 -21 -4 -41 -8 -45 -10 -3 -2 -33 -7 -66
-11 -32 -3 -62 -8 -65 -10 -27 -17 -564 -26 -690 -12 -379 43 -719 143 -1045
309 -175 89 -425 249 -457 293 -5 6 -8 6 -8 1 0 -6 -6 -3 -12 5 -7 9 -38 35
-68 59 -116 93 -367 356 -445 464 -11 16 -29 40 -40 55 -123 157 -274 431
-355 641 -17 47 -36 94 -41 105 -5 11 -16 43 -23 70 -8 28 -23 81 -34 120 -11
38 -18 73 -16 77 3 4 0 8 -7 8 -7 0 -10 3 -7 6 3 3 0 29 -7 57 -15 58 -19 78
-40 224 -34 235 -34 573 1 788 3 17 7 45 10 62 29 223 140 565 263 813 248
497 617 895 1115 1200 86 52 332 177 366 184 14 4 106 40 115 46 11 7 115 40
137 44 7 1 18 4 23 8 31 18 287 78 404 93 14 2 26 4 26 5 0 2 43 7 119 14 33
3 61 7 63 10 6 6 502 -1 558 -8z"/>
<path d="M7244 7775 c-56 -17 -95 -39 -125 -72 -62 -69 -80 -128 -66 -224 4
-22 44 -96 64 -116 21 -21 69 -53 80 -54 5 0 13 -5 18 -9 10 -8 64 -22 90 -23
45 -1 123 18 156 38 89 57 123 114 124 210 0 95 -37 165 -115 216 -59 38 -160
54 -226 34z"/>
</g>
</svg>
