<?xml version="1.0" standalone="yes"?>

<svg version="1.1" viewBox="0.0 0.0 960.0 720.0" fill="none" stroke="none" stroke-linecap="square" stroke-miterlimit="10" xmlns="http://www.w3.org/2000/svg" xmlns:xlink="http://www.w3.org/1999/xlink"><clipPath id="p.0"><path d="m0 0l960.0 0l0 720.0l-960.0 0l0 -720.0z" clip-rule="nonzero"></path></clipPath><g clip-path="url(#p.0)"><path fill="#000000" fill-opacity="0.0" d="m0 0l960.0 0l0 720.0l-960.0 0z" fill-rule="nonzero"></path><path fill="#000000" fill-opacity="0.0" d="m182.67717 336.31497l0 0c12.941727 -162.48479 156.54903 -283.6006 320.75592 -270.5197l0 0c78.85489 6.281662 152.01132 43.30253 203.37558 102.91843c51.36432 59.61589 76.729004 136.9434 70.51416 214.97133l0 0c-12.941711 162.48477 -156.54901 283.60056 -320.7559 270.51968l0 0c-164.20685 -13.080872 -286.83148 -155.40497 -273.88977 -317.88974z" fill-rule="nonzero"></path><path stroke="#246eb9" stroke-width="12.0" stroke-linejoin="round" stroke-linecap="butt" d="m182.67717 336.31497l0 0c12.941727 -162.48479 156.54903 -283.6006 320.75592 -270.5197l0 0c78.85489 6.281662 152.01132 43.30253 203.37558 102.91843c51.36432 59.61589 76.729004 136.9434 70.51416 214.97133l0 0c-12.941711 162.48477 -156.54901 283.60056 -320.7559 270.51968l0 0c-164.20685 -13.080872 -286.83148 -155.40497 -273.88977 -317.88974z" fill-rule="nonzero"></path><path fill="#246eb9" d="m704.7352 84.68579l0 0c1.1132812 -13.968018 14.149902 -24.325401 29.118103 -23.133858l0 0c14.968201 1.1915436 26.19989 13.480797 25.086609 27.448822l0 0c-1.1132812 13.968018 -14.149902 24.325401 -29.118103 23.133858l0 0c-14.968201 -1.1915436 -26.19989 -13.480797 -25.086609 -27.448822z" fill-rule="nonzero"></path><path fill="#000000" fill-opacity="0.0" d="m660.353 53.52279l-133.44623 254.00449l101.55731 8.089539l-45.390198 86.430664l46.955322 21.322052l-41.278137 11.314972" fill-rule="nonzero"></path><path stroke="#246eb9" stroke-width="16.0" stroke-linejoin="round" stroke-linecap="butt" d="m660.353 53.52279l-133.44623 254.00449l101.55731 8.089539l-45.390198 86.430664l46.955322 21.322052l-41.278137 11.314972" fill-rule="nonzero"></path><path fill="#000000" fill-opacity="0.0" d="m597.254 437.4591c7.08197 9.027191 43.330994 36.27426 42.4917 54.163177c-0.83935547 17.888885 -39.606384 44.308563 -47.52765 53.170258" fill-rule="nonzero"></path><path stroke="#246eb9" stroke-width="16.0" stroke-linejoin="round" stroke-linecap="butt" d="m597.254 437.4591c7.08197 9.027191 43.330994 36.27426 42.4917 54.163177c-0.83935547 17.888885 -39.606384 44.308563 -47.52765 53.170258" fill-rule="nonzero"></path></g></svg>
