<?xml version="1.0" standalone="yes"?>

<svg version="1.1" viewBox="0.0 0.0 960.0 720.0" fill="none" stroke="none" stroke-linecap="square" stroke-miterlimit="10" xmlns="http://www.w3.org/2000/svg" xmlns:xlink="http://www.w3.org/1999/xlink">
<clipPath id="p.0">
  <path d="m0 0l960.0 0l0 720.0l-960.0 0l0 -720.0z" clip-rule="nonzero">
  </path>
</clipPath>
<g clip-path="url(#p.0)">
<path fill="#000000" fill-opacity="0.0" d="m0 0l960.0 0l0 720.0l-960.0 0z" fill-rule="nonzero">
</path>
<path fill="#000000" d="m136.3622 125.56956l-36.283455 -21.874016l36.283455 -21.874016z" fill-rule="nonzero">
</path>
<path fill="#000000" d="m146.55118 78.73491l28.913391 0l0 41.07086l-28.913391 0z" fill-rule="nonzero">
</path>
<path fill="#000000" d="m316.6509 84.89239l0 0c0 -4.8531494 3.9342651 -8.787399 8.787415 -8.787399l0 0c2.3305664 0 4.565674 0.92581177 6.213623 2.5737686c1.6479492 1.6479568 2.573761 3.8830643 2.573761 6.2136307l0 0c0 4.8531494 -3.9342346 8.787399 -8.787384 8.787399l0 0c-4.8531494 0 -8.787415 -3.9342499 -8.787415 -8.787399z" fill-rule="nonzero">
</path>
<path fill="#000000" d="m180.18898 129.4042l12.086533 -17.574806l35.2285 0l12.086533 17.574806z" fill-rule="nonzero">
</path>
<path fill="#000000" d="m282.9125 83.85209c8.30365 -3.2477798 17.944397 -0.51013947 23.416016 6.649338c5.471649 7.159477 5.3806458 16.917427 -0.22097778 23.700722c-5.601654 6.7832947 -15.287323 8.864365 -23.525177 5.0546417z" fill-rule="nonzero">
</path>
<path fill="#000000" d="m197.51181 104.543304l12.37796 -16.88189l12.377945 16.88189z" fill-rule="nonzero">
</path>
<path fill="#000000" d="m244.31496 78.73491l28.913376 0l0 41.07086l-28.913376 0z" fill-rule="nonzero">
</path></g>
</svg>
